<svg width="16" height="16" viewBox="0 0 16 16" fill="none" xmlns="http://www.w3.org/2000/svg">
<path fill-rule="evenodd" clip-rule="evenodd" d="M8.60384 7.21663V7.19167C8.59874 7.20024 8.59308 7.20831 8.58764 7.21663H8.60384ZM14.8175 -2.98023e-06H1.18196C0.52942 -2.98023e-06 -2.00272e-05 0.513225 -2.00272e-05 1.14617V14.8537C-2.00272e-05 15.4862 0.52942 15.9999 1.18196 15.9999H14.8175C15.4706 15.9999 16 15.4862 16 14.8537V1.14617C16 0.513225 15.4706 -2.98023e-06 14.8175 -2.98023e-06ZM4.84974 13.3934H2.4329V6.16914H4.84974V13.3934ZM3.6416 5.18238H3.62552C2.81478 5.18238 2.29044 4.62752 2.29044 3.9341C2.29044 3.22548 2.8312 2.68607 3.65736 2.68607C4.48418 2.68607 4.99278 3.22548 5.00898 3.9341C5.00898 4.62752 4.48418 5.18238 3.6416 5.18238ZM13.5639 13.3934H11.1474V9.52808C11.1474 8.55722 10.7979 7.89465 9.92318 7.89465C9.2558 7.89465 8.85818 8.34126 8.68322 8.77294C8.61924 8.92745 8.60384 9.14291 8.60384 9.35864V13.3934H6.18722C6.18722 13.3934 6.2187 6.84617 6.18722 6.16914H8.60384V7.19167C8.92512 6.69974 9.4993 5.99871 10.7821 5.99871C12.372 5.99871 13.5639 7.03152 13.5639 9.25113V13.3934Z" fill="#C6CACC"/>
</svg>
