<svg width="20" height="14" viewBox="0 0 20 14" fill="none" xmlns="http://www.w3.org/2000/svg">
<path fill-rule="evenodd" clip-rule="evenodd" d="M15.9979 2.28254C15.9854 2.27642 15.9726 2.26246 15.9602 2.25022C15.2123 1.58911 14.3335 1.27349 13.3229 1.31119L13.2919 1.24336C13.2981 1.23724 13.3044 1.23724 13.3105 1.23724C14.227 1.03843 14.7695 0.834461 14.9314 0.612373C14.9878 0.433142 14.9195 0.334219 14.7195 0.309484C14.258 0.365074 13.834 0.457622 13.4537 0.600133C13.9341 0.309484 14.121 0.105518 14.015 -1.80006e-05C13.5413 0.012239 13.0302 0.241909 12.4935 0.693429C12.6932 0.371194 12.7681 0.197828 12.7184 0.167228C12.4627 0.334219 12.2381 0.513705 12.0449 0.704921C11.6395 1.13171 11.3153 1.5274 11.066 1.88661L11.0535 1.91721C10.4117 2.9003 9.96272 3.88928 9.69445 4.89783L9.59502 4.97252L9.57632 4.99015C9.18957 4.53276 8.7282 4.14956 8.17362 3.83933C7.51904 3.43801 6.75201 3.05456 5.86651 2.68386C4.9004 2.21398 3.92147 1.82417 2.9301 1.52152C2.92421 2.56657 3.46632 3.40104 4.54502 4.00731V4.02567C4.16451 4.01882 3.79679 4.07488 3.44141 4.18066C3.50982 5.15127 4.23947 5.819 5.62338 6.1897L5.61692 6.20806C5.07469 6.17819 4.62587 6.35742 4.27673 6.72814C4.73188 7.56921 5.53607 7.97053 6.7024 7.93968C6.47116 8.05134 6.29063 8.17401 6.17218 8.31113C5.96028 8.52147 5.89144 8.7695 5.96028 9.05304C6.20944 9.47983 6.65847 9.67694 7.3194 9.64682L7.35654 9.68991C7.35043 9.69603 7.34408 9.70241 7.33796 9.70827C6.19698 10.8216 4.81921 11.3224 3.20415 11.2176L3.17935 11.2298C2.19454 11.223 1.14098 10.7785 1.70469e-05 9.888C1.1471 11.4455 2.66827 12.5709 4.55137 13.2766C6.70808 13.9507 8.86569 13.9999 11.0162 13.4245H11.0535C13.1424 12.8554 14.9128 11.6867 16.3714 9.91885C17.0449 8.99135 17.4689 8.10766 17.6374 7.25971C18.7282 7.29669 19.5138 6.99994 20.0001 6.36968L19.9881 6.35057C19.626 6.47373 18.9154 6.43775 17.8615 6.23353V6.12187C17.8615 6.1165 17.8615 6.1165 17.868 6.12187C19.0215 5.99847 19.701 5.64662 19.9192 5.06435C19.1147 5.3616 18.3228 5.36675 17.5373 5.08956C17.3943 4.06264 16.8833 3.12924 15.9979 2.28254Z" fill="#C6CACC"/>
</svg>
